<?xml version="1.0" standalone="no"?>
<!DOCTYPE svg PUBLIC "-//W3C//DTD SVG 20010904//EN"
 "http://www.w3.org/TR/2001/REC-SVG-20010904/DTD/svg10.dtd">
<svg version="1.0" xmlns="http://www.w3.org/2000/svg"
 width="260.000000pt" height="260.000000pt" viewBox="0 0 260.000000 260.000000"
 preserveAspectRatio="xMidYMid meet">
<metadata>
Created by potrace 1.14, written by Peter Selinger 2001-2017
</metadata>
<g transform="translate(0.000000,260.000000) scale(0.100000,-0.100000)"
fill="#000000" stroke="none">
<path d="M617 2454 c-47 -84 -92 -171 -92 -179 0 -9 310 -9 1127 -2 l167 2
-18 -30 c-18 -29 -52 -92 -111 -200 -15 -27 -40 -72 -55 -100 -91 -163 -115
-206 -147 -265 -20 -36 -81 -146 -136 -245 -107 -194 -139 -251 -175 -317 -34
-61 -447 -807 -467 -843 -74 -132 -79 -143 -67 -147 6 -2 61 -4 122 -4 l110 1
178 300 c97 165 183 311 191 325 7 14 71 122 141 240 166 279 153 257 209 352
196 334 272 458 278 458 16 0 100 -126 138 -205 56 -118 74 -199 74 -340 0
-94 -5 -137 -23 -200 -55 -195 -172 -359 -334 -469 -21 -14 -40 -26 -43 -26
-3 0 -18 -8 -32 -19 -72 -50 -251 -91 -384 -88 l-97 3 -30 -58 c-17 -31 -28
-59 -23 -61 24 -12 208 -14 301 -4 91 11 245 66 342 123 139 82 287 241 361
389 33 64 76 201 85 268 10 68 9 227 0 300 -21 154 -108 336 -230 482 l-34 40
153 260 c84 143 153 265 154 270 0 7 -276 10 -811 10 l-810 0 -12 -21z"/>
<path d="M1165 2189 c-102 -14 -125 -19 -204 -48 -124 -45 -234 -115 -332
-211 -126 -123 -193 -231 -242 -385 -106 -337 -17 -706 231 -949 33 -32 67
-63 75 -67 15 -9 21 2 312 496 45 77 165 280 265 450 100 171 191 325 201 343
l19 32 -40 1 c-22 0 -53 1 -70 1 -16 0 -65 -1 -108 -1 l-79 -1 -99 -177 c-54
-97 -103 -185 -109 -194 -5 -10 -19 -35 -31 -56 -12 -21 -50 -90 -86 -153 -36
-63 -77 -136 -91 -162 -105 -190 -169 -298 -176 -294 -4 3 -15 23 -25 44 l-18
39 110 189 c60 104 119 205 131 224 11 19 30 52 41 73 12 21 48 84 81 139 33
55 57 103 54 106 -4 4 -60 7 -126 7 -110 1 -120 -1 -133 -20 -7 -11 -61 -109
-120 -217 -60 -109 -112 -198 -117 -198 -11 0 -4 161 11 225 52 234 203 433
412 544 200 107 401 123 647 50 9 -2 26 17 47 53 l32 57 -52 20 c-104 39 -291
57 -411 40z"/>
</g>
</svg>
