<?xml version="1.0" encoding="utf-8"?>
<!-- Generator: Adobe Illustrator 26.0.3, SVG Export Plug-In . SVG Version: 6.00 Build 0)  -->
<svg version="1.1" id="Layer_1" xmlns="http://www.w3.org/2000/svg" xmlns:xlink="http://www.w3.org/1999/xlink" x="0px" y="0px"
	 viewBox="0 0 84.8 112.8" style="enable-background:new 0 0 84.8 112.8;" xml:space="preserve">
<style type="text/css">
	.st0{fill:#1B1B1B;}
</style>
<g id="Group_3" transform="translate(0 0)">
	<g id="Group_2">
		<g id="Group_1">
			<path id="Path_1" class="st0" d="M69.4,0.1h-54C6.9,0.1,0.1,6.9,0.1,15.4v56.3l12.7-6.3l25-12.4V38.9l-25,11.7V28
				c0-8.5,6.9-15.3,15.3-15.3h28.7C65.2,12.7,72,19.6,72,28v8l12.7-6.3V15.3C84.7,6.9,77.9,0.1,69.4,0.1z"/>
			<path id="Path_2" class="st0" d="M72.5,48.4L37.3,66.1V80L72,63.2v20.9c0,8.5-6.9,15.3-15.3,15.3H28c-8.5,0-15.3-6.9-15.3-15.3
				v-5.9L0,84.6v12.2c0,8.5,6.9,15.3,15.3,15.3h54c8.5,0,15.3-6.9,15.3-15.3V42.3L72.5,48.4L72.5,48.4z"/>
		</g>
	</g>
</g>
</svg>
