<?xml version="1.0" encoding="utf-8"?>
<!-- Generator: Adobe Illustrator 26.0.3, SVG Export Plug-In . SVG Version: 6.00 Build 0)  -->
<svg version="1.1" id="Layer_1" xmlns="http://www.w3.org/2000/svg" xmlns:xlink="http://www.w3.org/1999/xlink" x="0px" y="0px"
	 viewBox="0 0 124.5 57.4" style="enable-background:new 0 0 124.5 57.4;" xml:space="preserve">
<g>
	<g>
		<path style="fill:#FFFFFF;" d="M0.9,46.6c0.3-0.5,0.7-1,1.2-1.2c0.5-0.3,1.1-0.4,1.7-0.4c0.8,0,1.4,0.2,2,0.5S6.7,46.3,7,47H6.2
			c-0.2-0.5-0.5-0.8-0.9-1.1s-0.9-0.4-1.5-0.4c-0.5,0-1,0.1-1.4,0.4c-0.4,0.2-0.7,0.6-0.9,1c-0.2,0.4-0.3,1-0.3,1.5s0.1,1.1,0.3,1.5
			c0.2,0.4,0.5,0.8,0.9,1c0.4,0.2,0.9,0.4,1.4,0.4c0.6,0,1.1-0.1,1.5-0.4s0.7-0.6,0.9-1.1H7c-0.2,0.7-0.6,1.2-1.2,1.5
			s-1.2,0.5-2,0.5c-0.6,0-1.2-0.1-1.7-0.4c-0.5-0.3-0.9-0.7-1.2-1.2c-0.3-0.5-0.4-1.1-0.4-1.8S0.6,47.1,0.9,46.6z"/>
		<path style="fill:#FFFFFF;" d="M17.8,50.2h-3.1l-0.6,1.6h-0.7l2.5-6.8h0.8l2.5,6.8h-0.7L17.8,50.2z M17.6,49.6l-1.4-3.7l-1.4,3.7
			H17.6z"/>
		<path style="fill:#FFFFFF;" d="M29.6,48.4c-0.4,0.4-1,0.5-1.7,0.5h-1.4v2.9h-0.7V45h2.1c0.8,0,1.3,0.2,1.7,0.5
			c0.4,0.4,0.6,0.8,0.6,1.4C30.2,47.5,30,48,29.6,48.4z M29.5,46.9c0-0.5-0.1-0.8-0.4-1c-0.3-0.2-0.7-0.4-1.2-0.4h-1.4v2.8h1.4
			C28.9,48.3,29.5,47.9,29.5,46.9z"/>
		<path style="fill:#FFFFFF;" d="M37.5,45v6.9h-0.7V45H37.5z"/>
		<path style="fill:#FFFFFF;" d="M48.6,45v0.6h-1.9v6.3H46v-6.3h-1.9V45H48.6z"/>
		<path style="fill:#FFFFFF;" d="M59.2,50.2H56l-0.6,1.6h-0.7l2.5-6.8H58l2.5,6.8h-0.7L59.2,50.2z M59,49.6l-1.4-3.7l-1.4,3.7H59z"
			/>
		<path style="fill:#FFFFFF;" d="M67.8,51.3h2.5v0.6h-3.2V45h0.7V51.3z"/>
		<path style="fill:#FFFFFF;" d="M77.6,51.7c-0.3-0.2-0.6-0.4-0.8-0.7c-0.2-0.3-0.3-0.6-0.3-0.9h0.7c0,0.3,0.2,0.6,0.4,0.9
			c0.3,0.3,0.6,0.4,1.1,0.4c0.5,0,0.8-0.1,1.1-0.4c0.3-0.2,0.4-0.5,0.4-0.9c0-0.3-0.1-0.5-0.2-0.7s-0.3-0.3-0.6-0.4
			s-0.5-0.2-0.9-0.3c-0.5-0.1-0.8-0.2-1.1-0.4c-0.3-0.1-0.5-0.3-0.7-0.6s-0.3-0.6-0.3-1c0-0.4,0.1-0.7,0.3-0.9
			c0.2-0.3,0.4-0.5,0.8-0.7c0.3-0.2,0.7-0.2,1.1-0.2c0.6,0,1.1,0.2,1.5,0.5c0.4,0.3,0.6,0.7,0.7,1.2h-0.7c0-0.3-0.2-0.5-0.5-0.8
			c-0.3-0.2-0.6-0.3-1.1-0.3c-0.4,0-0.8,0.1-1,0.3c-0.3,0.2-0.4,0.5-0.4,0.9c0,0.3,0.1,0.5,0.2,0.7c0.2,0.2,0.3,0.3,0.6,0.4
			c0.2,0.1,0.5,0.2,0.9,0.3c0.4,0.1,0.8,0.2,1.1,0.4c0.3,0.1,0.5,0.3,0.7,0.6s0.3,0.6,0.3,1c0,0.3-0.1,0.6-0.3,0.9
			c-0.2,0.3-0.4,0.5-0.8,0.7c-0.3,0.2-0.7,0.3-1.2,0.3C78.4,51.9,78,51.8,77.6,51.7z"/>
	</g>
	<path style="fill:#FFFFFF;" d="M5.5,14.3v8.9H16v4.1H5.5v9.3h11.8v4.1H0.6V10.2h16.7v4.1H5.5z"/>
	<path style="fill:#FFFFFF;" d="M41.8,12.1c2.4,1.2,4.3,3,5.6,5.3c1.3,2.3,2,5,2,8.1c0,3.1-0.7,5.8-2,8c-1.3,2.3-3.2,4-5.6,5.2
		c-2.4,1.2-5.3,1.8-8.5,1.8h-9.9V10.3h9.9C36.5,10.3,39.3,10.9,41.8,12.1z M41.4,33.6c1.9-1.9,2.8-4.6,2.8-8.1
		c0-3.5-0.9-6.3-2.8-8.2c-1.9-2-4.6-3-8.1-3h-4.9v22.2h4.9C36.8,36.5,39.5,35.6,41.4,33.6z"/>
	<path style="fill:#FFFFFF;" d="M59.2,10.3v19.3c0,2.3,0.6,4,1.8,5.2c1.2,1.2,2.9,1.7,5,1.7c2.2,0,3.9-0.6,5.1-1.7
		c1.2-1.2,1.8-2.9,1.8-5.2V10.3h5v19.2c0,2.5-0.5,4.6-1.6,6.3c-1.1,1.7-2.5,3-4.3,3.8c-1.8,0.8-3.8,1.3-6,1.3
		c-2.2,0-4.2-0.4-5.9-1.3c-1.8-0.8-3.2-2.1-4.2-3.8c-1-1.7-1.6-3.8-1.6-6.3V10.3H59.2z"/>
	<g>
		<g>
			<g>
				<g>
					<linearGradient id="SVGID_1_" gradientUnits="userSpaceOnUse" x1="85.312" y1="51.8003" x2="118.0317" y2="-4.8718">
						<stop  offset="0" style="stop-color:#A37F2D"/>
						<stop  offset="0.4843" style="stop-color:#EDCF65"/>
						<stop  offset="1" style="stop-color:#AE872E"/>
					</linearGradient>
					<path style="fill:url(#SVGID_1_);" d="M87.7,0l-2.6,4.7l29.5-0.2L87.7,53.1h5.5L115.7,15c3.1,3.3,5,7.7,5,12.5
						c0,10.1-8.2,18.3-18.3,18.3c-0.8,0-1.6-0.1-2.4-0.2l-1.4,2.7c1.2,0.2,2.5,0.3,3.8,0.3c11.7,0,21.2-9.5,21.2-21.2
						c0-5.9-2.4-11.2-6.3-15.1L124.5,0H87.7z"/>
					
						<linearGradient id="SVGID_00000032629521235991271480000004685967722743573144_" gradientUnits="userSpaceOnUse" x1="78.0139" y1="45.8964" x2="107.8605" y2="-5.7994">
						<stop  offset="0" style="stop-color:#A37F2D"/>
						<stop  offset="0.4843" style="stop-color:#EDCF65"/>
						<stop  offset="1" style="stop-color:#AE872E"/>
					</linearGradient>
					<path style="fill:url(#SVGID_00000032629521235991271480000004685967722743573144_);" d="M81.2,27.5c0,6.8,3.2,12.8,8.2,16.7
						l17.7-30.1h-6.6L87.2,37.8c-0.5-0.7-0.9-1.4-1.2-2.1L95.7,19h-5.8l-5.7,10.4c-0.1-0.6-0.1-1.3-0.1-1.9
						c0-10.1,8.2-18.3,18.3-18.3c2.3,0,4.4,0.4,6.4,1.2l1.4-2.6c-2.4-1-5.1-1.5-7.8-1.5C90.7,6.3,81.2,15.8,81.2,27.5"/>
				</g>
			</g>
		</g>
	</g>
</g>
<g>
</g>
<g>
</g>
<g>
</g>
<g>
</g>
<g>
</g>
<g>
</g>
</svg>
