<?xml version="1.0" encoding="utf-8"?>
<!-- Generator: Adobe Illustrator 26.0.3, SVG Export Plug-In . SVG Version: 6.00 Build 0)  -->
<svg version="1.1" id="Layer_1" xmlns="http://www.w3.org/2000/svg" xmlns:xlink="http://www.w3.org/1999/xlink" x="0px" y="0px"
	 viewBox="0 0 78 117.9" style="enable-background:new 0 0 78 117.9;" xml:space="preserve">
<path d="M21.9,0C22,0,22,0,22.1,0c0.2,0,0.5,0,0.7,0c9.9,0.8,18.2,9.1,19,19.1c0.4,5-0.8,9.6-3.6,13.7c-0.4,0.5-0.4,0.8,0.2,1.2
	c0.8,0.7,1.6,1.5,2.3,2.2c0.3,0.3,0.5,0.4,0.6-0.2c0.3-1.6,1.2-3,2.1-4.2c0.7-0.9,1.4-1.8,1.9-2.9c0.2-0.5,0.6-0.9,1.1-1.2
	c1.4-0.9,1.5-1.6,0.6-2.9c-0.4-0.5-0.8-1.1-0.8-1.8c0-0.5-0.2-0.9-0.5-1.3c-1.3-1.7-1.4-3.6-0.5-5.4c1-2,2.7-3,4.9-3.2
	c2.2-0.1,4.3,0.1,6.5,0.3c1.5,0.2,1.9,0.9,1.4,2.3c-0.1,0.3-0.4,0.6-0.2,0.9c0.8,1.7,0.3,3.8,1.3,5.4c0.2,0.3,0.3,0.8-0.1,0.9
	c-1.1,0.4-0.8,1.3-0.7,2c0.2,2.6,0.2,2.6-2.4,2.6c-0.8,0-1.4,0.2-1.8,1c-0.4,0.9-0.5,1.6,0.2,2.3c2.1,2.3,2.7,5.3,3.2,8.2
	c0.5,3,0.9,5.9,0.5,8.9c-0.2,1.7,0.8,2.8,1.7,3.9c2.5,3,5.1,6,7.9,8.6c0.8,0.8,1.6,1.6,2.4,2.5c0.7,0.9,1.4,1.8,1.2,3.1
	c-0.1,0.4,0.2,0.6,0.3,0.9c0.2,0.8,0,1.5-0.8,1.6c-0.9,0.2-1.8-0.1-2.6-0.3c-0.2,0-0.4-0.2-0.2-0.4c0.5-0.5,0.1-0.8-0.2-1.2
	c-3.2-3.2-6.3-6.3-9.5-9.5c-0.2-0.2-0.3-0.6-0.6-0.5c-0.3,0.1-0.1,0.5-0.1,0.7c0.1,2.8,0.2,5.6,0.3,8.5c0,0.5,0.2,0.8,0.3,1.3
	c1.7,4.7,3.5,9.4,5.5,14c1.1,2.5,1,5.2,1.2,7.8c0.5,5.1,0.8,10.3,1.7,15.4c0.3,1.5,0.7,3,1.3,4.5c0.7,2.1,2.5,3.1,4.3,4.2
	c1.4,0.9,2.9,1.1,4.4,0.3c0.8-0.4,1.2-0.2,1.6,0.5c0,1.1-0.6,1.7-1.8,2c-3.3,0.7-6.6,1.1-9.9,1.6c-0.5,0.1-1,0.2-1.5,0.3
	c-0.9,0-1.8,0-2.7,0c-0.4,0-0.8,0-1.2,0c-0.5-0.9-0.1-1.8,0-2.6c0.1-0.6,0.4-1.2-0.3-1.7c-0.2-0.1-0.2-0.4-0.2-0.7
	c-0.2-4.2-1.6-8.1-2.2-12.2c-0.5-3.1-0.9-6.2-1.5-9.3c-0.5-2.8-2.2-5.1-3.2-7.7c-0.2-0.7-0.4-1.4-1-1.9c-0.4,0.6-0.4,1.4-0.4,2.1
	c-0.6,3.9-2.4,6.9-5.5,9.3c-4.1,3.1-8.3,6.3-12,9.9c-1.9,1.9-3.6,3.9-5.1,6.2c-1.4,2.2-1.2,3.5,0.6,5.3c0.4,0.4,0.8,0.7,1.1,1.1
	c0.6,0.7,0.4,1.3-0.5,1.4c-0.8,0.1-1.6,0-2.3-0.6c-2.2-1.7-4.3-3.5-4.9-6.4c-0.1-0.6-0.4-1-1.1-1.4c-1.3-0.7-1.5-2.1-2-3.4
	c-0.1-0.4,0.2-0.7,0.5-0.9c0.3-0.2,0.5-0.4,0.8-0.5c2.5-0.5,4-2.3,5.7-4c4.1-4,8.1-8.2,12.9-11.4c1.5-1,2.3-2.1,2.5-3.9
	c0.6-3.8,0.9-7.7,0.9-11.6c0,0,0-0.1,0-0.1c0.8-2,0-3.8-0.4-5.7c-0.5-2.2-0.6-4.4-0.3-6.6c0.4-3.1-0.7-5.9-1.5-8.8
	c-1.1-3.7-2-7.5-1.2-11.4c0.1-0.4-0.1-0.6-0.3-0.8c-1.3-1.2-2.5-2.5-3.7-3.7c-0.5-0.5-0.7-0.1-0.9,0.2c-2.6,2.5-5.7,4.2-9.2,5.2
	C14.3,44.8,1.3,36.1,0,23.6c0-0.3,0-0.6,0-1c0-1.1,0-2.1,0-3.2c0-0.3,0-0.6,0-1c0-0.3,0-0.6,0-0.9C1.5,10.1,5.6,4.8,12.4,1.7
	c2-0.9,4.1-1.5,6.3-1.6c0.2,0,0.5,0,0.7,0C20.3,0,21.1,0,21.9,0z M20.9,2.6C11,2.5,2.7,10.7,2.7,20.4c0,10.2,8,18.3,18.1,18.4
	c9.9,0.1,18.2-8.1,18.2-18C39.1,10.8,31,2.6,20.9,2.6z"/>
<g>
</g>
<g>
</g>
<g>
</g>
<g>
</g>
<g>
</g>
<g>
</g>
</svg>
