<?xml version="1.0" encoding="utf-8"?>
<!-- Generator: Adobe Illustrator 26.0.3, SVG Export Plug-In . SVG Version: 6.00 Build 0)  -->
<svg version="1.1" id="Layer_1" xmlns="http://www.w3.org/2000/svg" xmlns:xlink="http://www.w3.org/1999/xlink" x="0px" y="0px"
	 viewBox="0 0 32.1 56.9" style="enable-background:new 0 0 32.1 56.9;" xml:space="preserve">
<g>
	<path style="fill:#D2AF51;" d="M16,56.9L16,56.9c-8.8,0-16-7.2-16-16V16C0,7.2,7.2,0,16,0h0c8.8,0,16,7.2,16,16v24.8
		C32.1,49.6,24.9,56.9,16,56.9z M28.1,40.5V16.6c0-6.6-5.4-12-12-12h-0.3c-6.6,0-12,5.4-12,12v23.9c0,6.6,5.4,12,12,12h0.3
		C22.7,52.5,28.1,47.1,28.1,40.5z"/>
	<path style="fill:#D2AF51;" d="M15.9,22.2L15.9,22.2c-1.2,0-2.3-1-2.3-2.3v-7.7c0-1.2,1-2.3,2.3-2.3h0c1.2,0,2.3,1,2.3,2.3V20
		C18.1,21.2,17.1,22.2,15.9,22.2z"/>
</g>
</svg>
