<?xml version="1.0" encoding="utf-8"?>
<!-- Generator: Adobe Illustrator 26.0.3, SVG Export Plug-In . SVG Version: 6.00 Build 0)  -->
<svg version="1.1" id="Layer_1" xmlns="http://www.w3.org/2000/svg" xmlns:xlink="http://www.w3.org/1999/xlink" x="0px" y="0px"
	 viewBox="0 0 457.8 210.8" style="enable-background:new 0 0 457.8 210.8;" xml:space="preserve">
<g style="opacity:0.18;">
	<g>
		<path style="fill:#D6BD64;" d="M16.4,162c1.1-2,2.6-3.5,4.4-4.6s4-1.6,6.3-1.6c2.8,0,5.2,0.7,7.2,2c2,1.3,3.5,3.2,4.4,5.6h-3
			c-0.7-1.7-1.8-3-3.3-4c-1.5-1-3.3-1.4-5.4-1.4c-1.9,0-3.5,0.4-5,1.3s-2.6,2.1-3.5,3.7c-0.8,1.6-1.3,3.5-1.3,5.6
			c0,2.1,0.4,4,1.3,5.6c0.8,1.6,2,2.8,3.5,3.7s3.1,1.3,5,1.3c2.1,0,3.9-0.5,5.4-1.4c1.5-0.9,2.6-2.3,3.3-3.9h3
			c-0.9,2.4-2.4,4.3-4.4,5.6c-2,1.3-4.4,2-7.2,2c-2.3,0-4.4-0.5-6.3-1.6c-1.9-1.1-3.4-2.6-4.4-4.6c-1.1-1.9-1.6-4.2-1.6-6.6
			C14.8,166.2,15.3,164,16.4,162z"/>
		<path style="fill:#D6BD64;" d="M78.5,175.3H67l-2.2,6h-2.7l9.2-24.9h2.8l9.2,24.9h-2.7L78.5,175.3z M77.7,173.2l-5-13.6l-5,13.6
			H77.7z"/>
		<path style="fill:#D6BD64;" d="M121.5,168.6c-1.4,1.3-3.5,2-6.4,2h-5.1v10.7h-2.5v-25.2h7.6c2.8,0,4.9,0.7,6.4,2
			c1.4,1.3,2.1,3.1,2.1,5.3C123.7,165.5,122.9,167.3,121.5,168.6z M121.1,163.4c0-1.7-0.5-3-1.4-3.8c-0.9-0.9-2.4-1.3-4.5-1.3h-5.1
			v10.2h5.1C119.1,168.4,121.1,166.7,121.1,163.4z"/>
		<path style="fill:#D6BD64;" d="M150.6,156.1v25.2H148v-25.2H150.6z"/>
		<path style="fill:#D6BD64;" d="M191.2,156.1v2.1h-7v23.1h-2.5v-23.1h-7v-2.1H191.2z"/>
		<path style="fill:#D6BD64;" d="M230,175.3h-11.5l-2.2,6h-2.7l9.2-24.9h2.8l9.2,24.9h-2.7L230,175.3z M229.2,173.2l-5-13.6l-5,13.6
			H229.2z"/>
		<path style="fill:#D6BD64;" d="M261.6,179.3h9v2.1h-11.6v-25.2h2.5V179.3z"/>
		<path style="fill:#D6BD64;" d="M297.7,180.7c-1.3-0.6-2.3-1.4-3-2.4c-0.7-1-1.1-2.2-1.2-3.5h2.7c0.1,1.2,0.7,2.3,1.6,3.2
			c1,0.9,2.4,1.4,4.2,1.4c1.7,0,3.1-0.4,4.1-1.3c1-0.9,1.5-2,1.5-3.3c0-1.1-0.3-2-0.8-2.6c-0.6-0.7-1.2-1.2-2.1-1.5
			c-0.8-0.3-1.9-0.7-3.4-1.1c-1.7-0.5-3-0.9-4-1.3c-1-0.4-1.8-1.1-2.5-2c-0.7-0.9-1-2.1-1-3.7c0-1.3,0.3-2.5,1-3.5
			c0.7-1,1.6-1.8,2.8-2.4c1.2-0.6,2.6-0.9,4.2-0.9c2.3,0,4.2,0.6,5.6,1.7c1.4,1.1,2.3,2.6,2.5,4.4h-2.7c-0.2-1-0.7-2-1.7-2.8
			c-1-0.8-2.3-1.2-3.9-1.2c-1.5,0-2.8,0.4-3.8,1.2s-1.5,1.9-1.5,3.3c0,1.1,0.3,1.9,0.8,2.6c0.6,0.6,1.2,1.1,2.1,1.5
			c0.8,0.3,2,0.7,3.4,1.1c1.6,0.5,3,0.9,4,1.4c1,0.4,1.9,1.1,2.6,2c0.7,0.9,1,2.1,1,3.7c0,1.2-0.3,2.3-0.9,3.4
			c-0.6,1.1-1.5,1.9-2.8,2.6c-1.2,0.6-2.7,1-4.4,1C300.4,181.6,299,181.3,297.7,180.7z"/>
	</g>
	<path style="fill:#D6BD64;" d="M33.3,43.7v32.6h38.4v14.9H33.3v34h43.1V140H15.1V28.8h61.4v14.9H33.3z"/>
	<path style="fill:#D6BD64;" d="M166.1,35.8c8.9,4.5,15.8,11,20.6,19.5c4.8,8.5,7.3,18.4,7.3,29.6c0,11.3-2.4,21.1-7.3,29.4
		c-4.9,8.3-11.7,14.7-20.6,19.1c-8.9,4.4-19.3,6.6-31.1,6.6H98.8V29h36.3C146.9,29,157.3,31.2,166.1,35.8z M165,114.6
		c6.9-7,10.4-16.9,10.4-29.7c0-12.9-3.5-23-10.4-30.2c-6.9-7.2-16.9-10.9-29.9-10.9H117v81.3h18.1C148.1,125.2,158,121.7,165,114.6z
		"/>
	<path style="fill:#D6BD64;" d="M230.1,29v70.8c0,8.4,2.2,14.8,6.6,19c4.4,4.3,10.6,6.4,18.5,6.4c8,0,14.2-2.1,18.6-6.4
		c4.4-4.3,6.6-10.6,6.6-19V29h18.2v70.5c0,9.1-2,16.7-5.9,23c-3.9,6.3-9.2,11-15.8,14.1c-6.6,3.1-13.9,4.6-21.9,4.6
		c-8,0-15.3-1.5-21.8-4.6c-6.6-3.1-11.7-7.8-15.6-14.1c-3.8-6.3-5.8-14-5.8-23V29H230.1z"/>
	<g>
		<g>
			<g>
				<g>
					
						<linearGradient id="SVGID_1_" gradientUnits="userSpaceOnUse" x1="336.4732" y1="35.2976" x2="429.2342" y2="195.9641" gradientTransform="matrix(1 0 0 -1 0 213.4552)">
						<stop  offset="0" style="stop-color:#A37F2D"/>
						<stop  offset="0.4843" style="stop-color:#EDCF65"/>
						<stop  offset="1" style="stop-color:#AE872E"/>
					</linearGradient>
					<path style="fill:url(#SVGID_1_);" d="M343.3,31.3l-7.4,13.3l83.6-0.6l-76.3,137.8h15.6l63.8-108c8.8,9.4,14.2,21.8,14.2,35.4
						c0,28.6-23.2,51.9-51.9,51.9c-2.3,0-4.5-0.3-6.8-0.6l-4,7.7c3.4,0.6,7.1,0.9,10.8,0.9c33.2,0,60.1-26.9,60.1-60.1
						c0-16.7-6.8-31.8-17.9-42.8l20.4-34.9H343.3z"/>
					
						<linearGradient id="SVGID_00000145745370536151111380000011757491190062409886_" gradientUnits="userSpaceOnUse" x1="315.8387" y1="52.0031" x2="400.4543" y2="198.5617" gradientTransform="matrix(1 0 0 -1 0 213.4552)">
						<stop  offset="0" style="stop-color:#A37F2D"/>
						<stop  offset="0.4843" style="stop-color:#EDCF65"/>
						<stop  offset="1" style="stop-color:#AE872E"/>
					</linearGradient>
					<path style="fill:url(#SVGID_00000145745370536151111380000011757491190062409886_);" d="M324.9,109.3
						c0,19.3,9.1,36.3,23.2,47.3l50.2-85.3h-18.7l-37.7,67.2c-1.4-2-2.6-4-3.4-6L366,85.2h-16.4l-16.2,29.5
						c-0.3-1.7-0.3-3.7-0.3-5.4c0-28.6,23.2-51.9,51.9-51.9c6.5,0,12.5,1.1,18.1,3.4l4-7.4c-6.8-2.8-14.5-4.3-22.1-4.3
						C351.8,49.2,324.9,76.1,324.9,109.3"/>
				</g>
			</g>
		</g>
	</g>
</g>
<g>
</g>
<g>
</g>
<g>
</g>
<g>
</g>
<g>
</g>
<g>
</g>
</svg>
